<?xml version="1.0" standalone="no"?>
<!DOCTYPE svg PUBLIC "-//W3C//DTD SVG 20010904//EN"
 "http://www.w3.org/TR/2001/REC-SVG-20010904/DTD/svg10.dtd">
<svg version="1.0" xmlns="http://www.w3.org/2000/svg"
 width="700.000000pt" height="700.000000pt" viewBox="0 0 700.000000 700.000000"
 preserveAspectRatio="xMidYMid meet">
<metadata>
Created by potrace 1.14, written by Peter Selinger 2001-2017
</metadata>
<g transform="translate(0.000000,700.000000) scale(0.100000,-0.100000)"
fill="#000000" stroke="none">
<path d="M1240 6993 c-80 -12 -185 -39 -256 -68 -242 -97 -431 -268 -548 -495
-46 -89 -90 -216 -101 -287 -3 -23 -8 -57 -11 -75 -2 -18 -5 -74 -5 -125 -1
-59 -5 -93 -13 -95 -6 -2 -77 -4 -159 -3 l-147 0 2 -525 3 -525 150 -1 c83 -1
153 -2 156 -3 3 -1 6 -853 6 -1893 0 -1041 3 -1923 7 -1960 4 -37 7 -70 7 -73
0 -9 39 -150 48 -170 67 -160 134 -269 225 -363 56 -59 151 -139 201 -169 73
-45 219 -108 302 -131 l98 -27 2741 -3 2742 -2 0 700 0 700 -2229 0 -2229 0 0
2800 0 2801 -482 -2 c-266 -1 -494 -4 -508 -6z"/>
<path d="M4770 6423 l0 -578 -1097 0 c-604 1 -1105 -1 -1113 -3 -13 -3 -15
-64 -13 -490 1 -268 2 -501 2 -518 l1 -31 1106 0 c750 0 1108 -4 1113 -11 3
-5 6 -692 5 -1526 l-1 -1516 954 0 953 0 0 33 c1 17 2 702 3 1522 l2 1489 155
1 155 0 0 525 0 525 -155 0 -155 0 -1 63 c-2 73 -13 213 -18 221 -2 3 -7 24
-10 46 -17 108 -98 288 -179 395 -150 201 -379 353 -602 401 -33 7 -67 15 -75
17 -8 3 -243 7 -522 9 l-508 4 0 -578z"/>
</g>
</svg>
